<svg id="Layer_1" data-name="Layer 1" xmlns="http://www.w3.org/2000/svg" viewBox="0 0 763.47 154.26"><defs><style>.cls-1{fill:#231f20;}</style></defs><title>signal_SVG</title><path class="cls-1" d="M87.15,320.55c.93,10.89,9.35,16.75,24.15,16.75,13.16,0,21.27-6.06,21.27-15.93,0-8.32-5-12.23-19.93-15.41l-17.58-3.81c-26.3-5.65-40-20.35-40-42.65,0-29.08,21.48-47.48,55.6-47.48,33.19,0,55.49,18.19,56,45.74h-35c-.62-10.38-8.43-16.86-20.55-16.86-11.51,0-18.81,5.55-18.81,14.29,0,9,5.34,13.77,18.81,16.54l17,3.6c28.57,6,41.42,19,41.42,41.83,0,31-21.69,49.12-59,49.12-36,0-57.76-17.06-58.37-45.73Z" transform="translate(-52.11 -212.02)"/><path class="cls-1" d="M447.15,363.3V215h32.47l41.52,71.05h2V215h32V363.3H522.58l-41.52-71.87h-1.95V363.3Z" transform="translate(-52.11 -212.02)"/><path class="cls-1" d="M646.51,330.72h-34.1l-8.85,32.58h-37.4L608.08,215h46.15l42,148.3H655.15Zm-5.85-27.13-10-48.17h-2l-10.37,48.17Z" transform="translate(-52.11 -212.02)"/><path class="cls-1" d="M815.57,363.3H715.78V215h38.85V332.16h60.94Z" transform="translate(-52.11 -212.02)"/><polygon class="cls-1" points="214.18 121.99 214.18 2.98 177.49 2.98 175.73 2.98 142.22 2.98 142.22 32.25 175.73 32.25 175.73 37 175.73 73.28 175.73 121.99 138.74 121.99 138.74 151.28 247.57 151.28 247.57 121.99 214.18 121.99"/><path class="cls-1" d="M431.55,282.42l-.11-17h0c-.82-33.19-22.4-53.44-56.73-53.44-37.92,0-60.22,22.41-60.22,60.74v32.78c0,38.34,22.3,60.74,60.22,60.74,34.84,0,56.94-20.66,56.94-53.44V282.42Zm-78.72-9.66c0-19.32,7-29.19,20.66-29.19,10.3,0,17.64,7.24,19.31,18.79l-40,22.09Zm40.49,35.56v4.52c0,13.87-7.09,21.89-19.21,21.89-10.87,0-17.55-5.75-20.1-17.15L393.33,296v12.34Z" transform="translate(-52.11 -212.02)"/></svg>